<svg width="24" height="24" viewBox="0 0 24 24" fill="none" xmlns="http://www.w3.org/2000/svg">
<path d="M20.1001 9.6001H19.7251V8.1001C19.7251 7.0501 18.9001 6.2251 17.8501 6.2251H10.7251V5.8501C10.7251 4.8001 9.9001 3.9751 8.8501 3.9751H5.4751C4.4251 3.9751 3.6001 4.8001 3.6001 5.8501V18.0751C3.6001 18.6001 3.8251 19.1251 4.2001 19.4251C4.5001 19.7251 4.9501 19.8751 5.3251 19.9501C5.4001 20.0251 5.5501 20.0251 5.6251 20.0251H18.4501C19.2751 20.0251 20.0251 19.5001 20.2501 18.6751L21.9001 11.9251C21.9751 11.7751 21.9751 11.6251 21.9751 11.4751C21.9751 10.4251 21.1501 9.6001 20.1001 9.6001ZM5.6251 18.6001C5.4751 18.6001 5.3251 18.5251 5.2501 18.4501C5.1751 18.3001 5.1001 18.2251 5.1001 18.0751V5.8501C5.1001 5.6251 5.2501 5.4751 5.4751 5.4751H8.8501C9.0751 5.4751 9.2251 5.6251 9.2251 5.8501V6.9751C9.2251 7.4251 9.5251 7.7251 9.9751 7.7251H17.7751C18.0001 7.7251 18.1501 7.8751 18.1501 8.1001V9.6001H9.6751C8.8501 9.6001 8.1001 10.1251 7.8751 11.0251L6.1501 18.2251C6.0751 18.4501 5.8501 18.6001 5.6251 18.6001ZM20.4751 11.4751L18.8251 18.2251C18.7501 18.3751 18.6001 18.5251 18.4501 18.5251H7.5751L9.3001 11.3251C9.3751 11.1001 9.5251 11.0251 9.6751 11.0251H18.9751H20.1001C20.3251 11.0251 20.4751 11.1751 20.4751 11.4001C20.4751 11.4001 20.4751 11.4001 20.4751 11.4751Z" fill="#2D373D"/>
</svg>
