<svg width="24" height="24" viewBox="0 0 24 24" fill="none" xmlns="http://www.w3.org/2000/svg">
<path d="M7.05 7.27539H3V21.9754H7.05V7.27539Z" fill="#9CB0BC"/>
<path d="M5.0248 6.0002C6.1846 6.0002 7.1248 5.09357 7.1248 3.9752C7.1248 2.85682 6.1846 1.9502 5.0248 1.9502C3.86501 1.9502 2.9248 2.85682 2.9248 3.9752C2.9248 5.09357 3.86501 6.0002 5.0248 6.0002Z" fill="#9CB0BC"/>
<path d="M15.4496 7.27539C14.3996 7.27539 13.3496 7.72539 12.5996 8.47539V7.27539H8.47461V21.9754H12.5996V12.7504C12.5996 12.7504 12.4496 10.8754 14.6996 10.8754C16.0496 10.8754 16.7246 11.6254 16.7246 12.7504V22.0504H21.0746V12.9004C20.9996 7.87539 16.8746 7.27539 15.4496 7.27539Z" fill="#9CB0BC"/>
</svg>
