<svg width="24" height="24" viewBox="0 0 24 24" fill="none" xmlns="http://www.w3.org/2000/svg">
<path d="M16.5748 2.9248H7.4248C4.9498 2.9248 2.9248 4.9498 2.9248 7.4248V16.5748C2.9248 19.0498 4.9498 21.0748 7.4248 21.0748H16.5748C19.0498 21.0748 21.0748 19.0498 21.0748 16.5748V7.4248C21.0748 4.9498 19.0498 2.9248 16.5748 2.9248ZM19.5748 16.5748C19.5748 18.2248 18.2248 19.5748 16.5748 19.5748H7.4248C5.7748 19.5748 4.4248 18.2248 4.4248 16.5748V7.4248C4.4248 5.7748 5.7748 4.4248 7.4248 4.4248H16.5748C18.2248 4.4248 19.5748 5.7748 19.5748 7.4248V16.5748Z" fill="#9CB0BC"/>
<path d="M12 7.125C9.3 7.125 7.125 9.3 7.125 12C7.125 14.7 9.3 16.875 12 16.875C14.7 16.875 16.875 14.7 16.875 12C16.875 9.3 14.7 7.125 12 7.125ZM12 15.3C10.125 15.3 8.625 13.8 8.625 11.925C8.625 10.05 10.125 8.55 12 8.55C13.875 8.55 15.375 10.05 15.375 11.925C15.375 13.8 13.875 15.3 12 15.3Z" fill="#9CB0BC"/>
<path d="M16.875 8.1748C17.4963 8.1748 18 7.67112 18 7.0498C18 6.42848 17.4963 5.9248 16.875 5.9248C16.2537 5.9248 15.75 6.42848 15.75 7.0498C15.75 7.67112 16.2537 8.1748 16.875 8.1748Z" fill="#9CB0BC"/>
</svg>
