<svg width="24" height="24" viewBox="0 0 24 24" fill="none" xmlns="http://www.w3.org/2000/svg">
<path d="M20.325 16.05L17.925 13.65C17.1 12.825 15.75 12.825 14.925 13.65C14.7 13.875 14.325 13.875 14.1 13.65L10.275 9.825C10.05 9.525 10.05 9.15 10.275 8.925C11.1 8.1 11.1 6.75 10.275 5.925L7.94997 3.525C7.12497 2.7 5.77497 2.7 4.94997 3.525L4.34997 4.125C2.69997 5.7 2.39997 8.175 3.67497 10.125C6.37497 14.175 9.82497 17.55 13.8 20.25C14.625 20.775 15.525 21 16.425 21C17.625 21 18.9 20.55 19.725 19.65L20.325 19.05C21.15 18.225 21.15 16.875 20.325 16.05ZM19.35 17.925L18.75 18.525C17.7 19.65 15.975 19.8 14.625 18.975C10.8 16.425 7.49997 13.125 4.94997 9.3C4.12497 8.025 4.27497 6.3 5.39997 5.175L5.92497 4.575C6.22497 4.35 6.59997 4.35 6.82497 4.575L9.22497 7.05C9.44997 7.275 9.44997 7.65 9.22497 7.875C8.39997 8.7 8.39997 10.05 9.22497 10.875L13.05 14.625C13.875 15.45 15.225 15.45 16.05 14.625C16.35 14.4 16.725 14.4 16.95 14.625L19.35 17.025C19.575 17.325 19.575 17.7 19.35 17.925Z" fill="#D81E05"/>
</svg>
