<svg width="160" height="19" viewBox="0 0 160 19" fill="none" xmlns="http://www.w3.org/2000/svg">
<path fill-rule="evenodd" clip-rule="evenodd" d="M11.4569 6.02924C11.6696 6.11841 11.8137 6.32419 11.8137 6.56426C11.8137 6.69458 11.7691 6.80776 11.7039 6.90379L9.75555 10.2477C9.71096 10.3437 9.61148 10.4088 9.50171 10.4088C9.38509 10.4088 9.28218 10.3403 9.23416 10.2408L7.29951 6.90036C7.22748 6.80433 7.19318 6.6843 7.19318 6.56426C7.19318 6.33448 7.33038 6.13213 7.52591 6.03953C8.17765 5.79603 8.82253 5.67599 9.50171 5.67599C10.1809 5.67599 10.8326 5.79603 11.4329 6.01552L11.4569 6.02924ZM5.74562 7.12328C5.88626 7.01011 6.0955 6.99639 6.26702 7.09242C6.3562 7.14729 6.42138 7.21931 6.46254 7.30848L8.02672 10.035C8.07474 10.1105 8.0816 10.2031 8.04044 10.2854C7.98899 10.3643 7.89637 10.4088 7.81062 10.402L4.6651 10.4088C4.57249 10.4191 4.47301 10.3986 4.39068 10.3471C4.22603 10.2545 4.14028 10.0727 4.15057 9.8944C4.25005 9.34224 4.42499 8.83466 4.70283 8.36137C4.98068 7.88123 5.32714 7.46968 5.72504 7.13357L5.74562 7.12328ZM13.2578 7.12328C13.1103 7.01011 12.9045 6.99639 12.733 7.09242C12.6438 7.14729 12.5786 7.21931 12.5409 7.30848L10.9733 10.035C10.9218 10.1105 10.915 10.2031 10.963 10.2854C11.0144 10.3643 11.1036 10.4088 11.186 10.402L14.3315 10.4088C14.4275 10.4191 14.527 10.3986 14.6093 10.3471C14.774 10.2545 14.8597 10.0727 14.846 9.8944C14.7534 9.34224 14.5716 8.83466 14.3006 8.36137C14.0227 7.88123 13.6694 7.46968 13.2715 7.13357L13.2578 7.12328ZM9.9648 11.3417V14.25H9.0352V11.3417C8.58928 11.3383 8.00271 11.3383 7.79003 11.3314L4.69597 11.3383C4.43528 11.352 4.16772 11.2937 3.92074 11.1531C3.4508 10.8787 3.20383 10.3814 3.22098 9.87726C3.22098 9.80523 3.23127 9.74007 3.23813 9.6852C3.3479 9.0713 3.564 8.46426 3.88987 7.89152C4.2226 7.31877 4.64795 6.82834 5.12818 6.42365C5.44719 6.18357 5.89998 6.06354 6.31504 6.13556C6.4351 5.74116 6.70951 5.40505 7.07312 5.22672C7.13829 5.18899 7.20004 5.15469 7.25492 5.13755C7.95468 4.88718 8.71276 4.75 9.49485 4.75C10.2838 4.75 11.0453 4.88718 11.7451 5.14783C12.1533 5.32274 12.51 5.69314 12.6609 6.1287C13.0589 6.0361 13.4705 6.12527 13.7998 6.37563C14.28 6.7769 14.7671 7.3222 15.0998 7.89495C15.4291 8.46769 15.6452 9.07473 15.755 9.68863C15.7619 9.7435 15.7687 9.80866 15.7722 9.88069C15.7927 10.3848 15.5389 10.8821 15.0724 11.1565C14.8323 11.2971 14.5647 11.3554 14.3006 11.3417L11.2065 11.3348C10.9939 11.3383 10.4073 11.3383 9.9648 11.3417ZM9.49829 0.908845C4.75086 0.908845 0.902148 4.75686 0.902148 9.5C0.902148 14.2466 4.75086 18.098 9.49829 18.098C14.2457 18.098 18.0944 14.2466 18.0944 9.5C18.0944 4.75686 14.2491 0.908845 9.49829 0.908845ZM9.49829 0C14.7431 0 19 4.25271 19 9.49657C19 14.7439 14.7431 19 9.49829 19C4.25348 19 0 14.7473 0 9.49657C0 4.25271 4.25348 0 9.49829 0Z" fill="#D81E05"/>
<path d="M33.9134 0L38.5448 9.50171L43.183 0H50.1831V19H43.183V9.50171L38.5448 19L33.9134 9.50171V19H26.9065V0H33.9134Z" fill="#D81E05"/>
<path d="M64.0738 2.85017L61.2266 12.759H66.9142L64.0738 2.85017ZM52.4321 19L57.8838 0H70.2673L75.7121 19H68.7086L67.8097 15.8795H60.3345L59.439 19H52.4321Z" fill="#D81E05"/>
<path fill-rule="evenodd" clip-rule="evenodd" d="M86.5882 2.18963C88.1708 2.18963 89.7054 3.03476 89.7054 4.75581C89.7054 6.48028 88.3519 7.87286 86.5882 7.87286H85.0706V2.19305H86.5882V2.18963ZM91.059 0.0100861C94.1215 0.0100861 96.5961 2.49073 96.5961 5.54961C96.5961 8.6085 94.1181 11.0857 91.059 11.0857H84.9544V18.9998H77.9475V0.0100861H91.059Z" fill="#D81E05"/>
<path d="M99.0229 0H117.644V3.1239H106.026V7.95174H117.644V11.0688H106.026V19H99.0229V0Z" fill="#D81E05"/>
<path d="M148.379 15.8795H160V19H141.372V0H160V3.1239H148.379V7.95174H160V11.0688H148.379V15.8795Z" fill="#D81E05"/>
<path fill-rule="evenodd" clip-rule="evenodd" d="M128.739 2.18963C130.28 2.18963 131.856 3.03476 131.856 4.75581C131.856 6.47686 130.465 7.87286 128.739 7.87286H127.225V2.18963H128.739ZM138.74 14.0967V14.2507C138.74 14.1994 138.743 14.148 138.74 14.0967ZM138.74 14.2507V18.9998H133.996H131.849V14.4046C131.849 14.3533 131.853 14.2986 131.853 14.2507C131.853 12.533 130.455 11.1336 128.736 11.1336H127.221V18.9998H120.095V9.50153V0.0100861H127.881H133.996C136.617 0.0100861 138.74 2.13488 138.74 4.75581C138.74 7.38016 136.621 9.50153 133.996 9.50153C136.563 9.50153 138.658 11.5442 138.74 14.0967C138.743 14.148 138.74 14.1994 138.74 14.2507Z" fill="#D81E05"/>
</svg>
