<svg width="186" height="25" viewBox="0 0 186 25" fill="none" xmlns="http://www.w3.org/2000/svg">
<path fill-rule="evenodd" clip-rule="evenodd" d="M80.18 17.35H71.05H68.95C68.67 17.35 68.44 17.49 68.38 17.74C68.352 17.844 68.3144 17.9448 68.2768 18.0456C68.2204 18.1968 68.164 18.348 68.14 18.51C68.13 18.61 68.1 18.72 68.02 18.8C68.0096 18.8104 67.9992 18.8232 67.9893 18.8354L67.9892 18.8355C67.9704 18.8587 67.9531 18.88 67.94 18.88C67.89 18.87 67.86 18.83 67.85 18.78C67.8095 18.517 67.7327 18.2676 67.6562 18.0196C67.6194 17.8999 67.5826 17.7805 67.55 17.66C67.5115 17.518 67.4742 17.376 67.4369 17.2342L67.4362 17.2316C67.3187 16.7849 67.2016 16.3396 67.05 15.9C66.95 15.62 66.75 15.48 66.47 15.47C66.18 15.46 66.02 15.63 65.91 15.86C65.8783 15.9235 65.8546 15.9911 65.8313 16.0575C65.8179 16.0957 65.8046 16.1335 65.79 16.17C65.6968 16.4142 65.6173 16.6644 65.5376 16.9152L65.5376 16.9153C65.4379 17.2293 65.3378 17.5443 65.21 17.85L65.2037 17.8669C65.1768 17.9397 65.1543 18.0007 65.08 18.01C65.003 18.01 64.9773 17.9442 64.9527 17.8813C64.9485 17.8707 64.9444 17.8601 64.94 17.85C64.59 17.07 64.51 16.95 63.68 16.96C63.1667 16.9667 62.6533 16.9644 62.14 16.9622L62.1387 16.9622C61.8824 16.9611 61.6262 16.96 61.37 16.96C61.22 16.96 61.08 16.91 61.08 16.76C61.08 16.6153 61.0582 16.4778 61.0365 16.3411C61.0222 16.251 61.0079 16.1613 61 16.07C60.965 15.7671 60.9199 15.4641 60.8745 15.1592L60.8745 15.1591L60.8744 15.1589C60.8419 14.9405 60.8092 14.7211 60.78 14.5C60.7471 14.2603 60.7164 14.0207 60.6859 13.7821C60.6514 13.5129 60.6171 13.245 60.58 12.98C60.555 12.785 60.5225 12.59 60.49 12.395C60.4575 12.2 60.425 12.005 60.4 11.81C60.3835 11.6748 60.3703 11.5397 60.3571 11.4049L60.3571 11.4048C60.3303 11.1307 60.3036 10.8581 60.25 10.59C60.195 10.29 60.155 9.9875 60.115 9.685L60.115 9.68477C60.075 9.38235 60.035 9.07993 59.98 8.78C59.9053 8.38415 59.8641 7.97715 59.823 7.57148L59.823 7.57139C59.8091 7.43395 59.7952 7.29665 59.78 7.16C59.7573 6.95091 59.7242 6.74181 59.6912 6.53272C59.6515 6.28181 59.6118 6.03091 59.59 5.78C59.56 5.49 59.51 5.2 59.43 4.92C59.34 4.62 59.1 4.48 58.76 4.5C58.49 4.52 58.3 4.68 58.25 4.99C58.205 5.275 58.1937 5.56 58.1825 5.845C58.1787 5.94 58.175 6.035 58.17 6.13C58.1564 6.47092 58.1324 6.81183 58.1084 7.15275C58.0797 7.56183 58.0509 7.97092 58.04 8.38C58.04 8.72965 58.0234 9.07376 58.0067 9.42058L58.0066 9.42085C58.0009 9.54014 57.9951 9.65974 57.99 9.78C57.975 10.06 57.955 10.34 57.935 10.62C57.915 10.9 57.895 11.18 57.88 11.46C57.87 11.64 57.87 11.8175 57.87 11.995C57.87 12.1725 57.87 12.35 57.86 12.53C57.847 12.7148 57.833 12.9001 57.8189 13.0857C57.7685 13.7535 57.7178 14.4248 57.71 15.09C57.6978 15.7021 57.6555 16.3142 57.6132 16.9286L57.6132 16.9287L57.6131 16.9289C57.5863 17.3181 57.5594 17.7083 57.54 18.1C57.5302 18.2966 57.5214 18.4922 57.5127 18.6874L57.5126 18.6882L57.5126 18.6886C57.4947 19.0886 57.4769 19.487 57.45 19.89C57.4167 20.3433 57.4011 20.7967 57.3856 21.25C57.3778 21.4767 57.37 21.7033 57.36 21.93C57.3543 22.0507 57.3386 22.1747 57.3225 22.302V22.302C57.3106 22.3962 57.2985 22.4922 57.29 22.59C57.2041 22.5041 57.2067 22.4182 57.2092 22.3386C57.2096 22.3256 57.21 22.3127 57.21 22.3C57.228 21.7504 57.173 21.2089 57.118 20.6682V20.6682L57.1 20.49C57.0829 20.2985 57.067 20.1058 57.051 19.9127C57.0203 19.5413 56.9895 19.1685 56.95 18.8C56.9 18.32 56.86 17.84 56.82 17.35C56.7981 17.1017 56.7815 16.8522 56.7649 16.6022L56.7649 16.6018L56.7649 16.6017C56.736 16.1672 56.7071 15.7316 56.65 15.3C56.5998 14.8986 56.5753 14.4921 56.5508 14.0842C56.5411 13.9229 56.5313 13.7615 56.52 13.6C56.49 13.21 56.24 12.94 55.9 12.93C55.56 12.92 55.31 13.15 55.26 13.55C55.21 13.87 55.1625 14.19 55.115 14.51C55.0675 14.83 55.02 15.15 54.97 15.47C54.925 15.765 54.8825 16.0625 54.84 16.36C54.7975 16.6575 54.755 16.955 54.71 17.25C54.6858 17.4195 54.6542 17.589 54.6198 17.7741L54.6198 17.7742C54.5973 17.8948 54.5737 18.022 54.55 18.16C54.5197 18.1095 54.4917 18.0658 54.4663 18.0262L54.4663 18.0262C54.4163 17.9482 54.3765 17.8863 54.35 17.82L53.36 15.81C53.23 15.54 53.03 15.39 52.71 15.41C52.42 15.43 52.27 15.62 52.18 15.85C52.06 16.145 51.9425 16.445 51.825 16.745C51.7075 17.045 51.59 17.345 51.47 17.64C51.438 17.7201 51.409 17.8002 51.3801 17.88C51.319 18.0492 51.2583 18.2169 51.17 18.38C51.14 18.43 51.11 18.48 51.05 18.47C51.01 18.47 50.99 18.42 50.99 18.37C50.9608 18.1438 50.889 17.9335 50.8174 17.7237C50.7908 17.646 50.7643 17.5684 50.74 17.49C50.59 17.01 50.42 16.88 49.92 16.88H44.05C43.95 16.88 43.85 16.89 43.76 16.9C43.7445 16.9 43.7271 16.9048 43.7095 16.9097C43.6704 16.9204 43.6307 16.9314 43.61 16.89C43.586 16.8259 43.6389 16.8003 43.6866 16.7773C43.6985 16.7716 43.71 16.766 43.72 16.76C43.8138 16.7086 43.9085 16.658 44.0036 16.6073L44.0037 16.6073C44.2228 16.4904 44.4438 16.3725 44.66 16.24C46.15 15.33 47.24 14.05 48 12.5C48.47 11.54 48.74 10.53 48.81 9.47C48.83 9.18337 48.8233 8.89675 48.8167 8.61012V8.61C48.8133 8.46667 48.81 8.32333 48.81 8.18C48.81 7.81 48.78 7.44 48.7 7.08C48.39 5.71 47.83 4.45 46.94 3.35C46.23 2.47 45.4 1.73 44.41 1.17C43.41 0.61 42.35 0.22 41.21 0.08L41.1989 0.0801516C41.157 0.0809801 41.0917 0.0822708 41.11 0H38.92C38.96 0.08 38.89 0.08 38.85 0.08C38.7984 0.0879316 38.7453 0.0927177 38.6925 0.0974769C38.6121 0.104718 38.5324 0.111897 38.46 0.13C37.33 0.36 36.27 0.76 35.3 1.4C34.63 1.84 34 2.33 33.47 2.94C32.23 4.36 31.48 6 31.3 7.88C31.19 8.95 31.24 10.01 31.54 11.05C32.32 13.71 33.95 15.63 36.46 16.8C36.4674 16.803 36.475 16.8057 36.4826 16.8084L36.4827 16.8085C36.5267 16.8243 36.5715 16.8404 36.58 16.9C36.5541 16.9432 36.5059 16.9416 36.4674 16.9404C36.4613 16.9402 36.4555 16.94 36.45 16.94C35.5298 16.94 34.6194 16.9302 33.6994 16.9203L33.67 16.92C32.9285 16.92 32.1826 16.9111 31.4381 16.9022C31.0681 16.8977 30.6985 16.8933 30.33 16.89C30.08 16.89 29.91 17.01 29.81 17.22C29.65 17.58 29.54 17.95 29.45 18.33C29.4439 18.3483 29.4443 18.3703 29.4447 18.392C29.4456 18.4416 29.4465 18.49 29.37 18.49C29.296 18.49 29.2761 18.4359 29.2547 18.3778C29.25 18.3652 29.2453 18.3525 29.24 18.34L28.82 17.29C28.735 17.089 28.6574 16.885 28.5798 16.6809L28.5798 16.6809C28.4566 16.357 28.3334 16.0328 28.18 15.72C28.06 15.47 27.84 15.4 27.57 15.41C27.32 15.42 27.19 15.56 27.09 15.76L27.0898 15.7604C26.7499 16.4403 26.4099 17.1201 26.07 17.81C26.02 17.92 25.97 18.02 25.87 18.1C25.81 18.04 25.79 17.97 25.79 17.89C25.79 17.5044 25.7221 17.1229 25.6544 16.7428L25.6544 16.7427C25.615 16.5215 25.5758 16.3007 25.55 16.08C25.488 15.5373 25.4019 14.9946 25.3151 14.4472L25.3151 14.447C25.2899 14.2884 25.2647 14.1295 25.24 13.97C25.22 13.83 25.19 13.68 25.16 13.54C25.06 13.1 24.85 12.93 24.44 12.95C24.16 12.96 23.92 13.25 23.9 13.63C23.8837 13.943 23.8493 14.2544 23.8148 14.5661C23.7645 15.0212 23.7141 15.4771 23.72 15.94V15.94C23.72 15.98 23.72 16.02 23.71 16.06L23.71 16.0601C23.65 16.5901 23.59 17.12 23.56 17.65C23.54 17.96 23.515 18.2675 23.49 18.575C23.465 18.8825 23.44 19.19 23.42 19.5C23.4096 19.6038 23.4019 19.7077 23.3941 19.8129L23.3941 19.8131C23.3869 19.9105 23.3796 20.0091 23.37 20.11C23.3563 20.2449 23.3415 20.3792 23.3268 20.5133L23.3267 20.5138L23.3267 20.5138C23.277 20.966 23.2277 21.415 23.22 21.87C23.22 22.023 23.2013 22.1722 23.1822 22.3245L23.1822 22.3246V22.3246C23.17 22.4212 23.1578 22.5191 23.15 22.62C23.07 22.57 23.07 22.51 23.07 22.46C23.06 21.72 23.02 20.99 22.97 20.25C22.962 20.086 22.9572 19.922 22.9524 19.758C22.9452 19.512 22.938 19.266 22.92 19.02C22.8873 18.6045 22.8699 18.1868 22.8525 17.769C22.8326 17.2918 22.8127 16.8145 22.77 16.34C22.7388 15.99 22.727 15.64 22.7153 15.29C22.7083 15.08 22.7013 14.87 22.69 14.66C22.68 14.47 22.6722 14.28 22.6644 14.09L22.6644 14.0899C22.6489 13.7099 22.6333 13.33 22.6 12.95C22.5689 12.6077 22.5571 12.2654 22.5455 11.9256C22.5384 11.7193 22.5313 11.5139 22.52 11.31C22.5124 11.1704 22.5041 11.0309 22.4959 10.8915C22.4716 10.4815 22.4475 10.073 22.44 9.67C22.4264 9.21584 22.4037 8.76168 22.3811 8.31064L22.3811 8.31032L22.3811 8.30977C22.3703 8.0957 22.3597 7.88233 22.35 7.67C22.335 7.26 22.3125 6.85 22.29 6.44C22.2675 6.03 22.245 5.62 22.23 5.21C22.21 4.86 21.98 4.57 21.68 4.54C21.21 4.49 21.04 4.75 20.97 5.11C20.9101 5.41484 20.868 5.72263 20.826 6.03017C20.7908 6.2876 20.7556 6.54484 20.71 6.8C20.6477 7.19672 20.5982 7.59987 20.5488 8.00216L20.5488 8.00236C20.511 8.30983 20.4733 8.61679 20.43 8.92C20.3874 9.23763 20.3373 9.55377 20.2872 9.86956C20.208 10.369 20.129 10.8676 20.08 11.37C20.0275 11.906 19.9473 12.4365 19.8671 12.9672L19.8671 12.9673L19.8671 12.9674C19.7946 13.4466 19.7222 13.9261 19.67 14.41C19.6336 14.7741 19.5765 15.1362 19.5193 15.4981L19.5193 15.4982C19.451 15.9313 19.3827 16.3642 19.35 16.8C19.35 16.9 19.3 16.96 19.2 16.97C19.09 16.98 18.98 16.98 18.86 16.98H16.38C16.07 16.98 15.84 17.11 15.7 17.38C15.676 17.425 15.6529 17.471 15.6296 17.5173L15.6295 17.5173C15.5752 17.6252 15.52 17.7351 15.45 17.84C15.4382 17.8607 15.4298 17.885 15.4216 17.9088C15.4021 17.9655 15.3834 18.02 15.32 18.02C15.2442 18.02 15.2181 17.942 15.1938 17.8696C15.1892 17.856 15.1847 17.8426 15.18 17.83C15.07 17.49 14.96 17.15 14.84 16.82C14.7953 16.697 14.7589 16.5725 14.7225 16.4483C14.6614 16.2393 14.6003 16.0307 14.5 15.83C14.38 15.61 14.21 15.48 13.95 15.47C13.64 15.47 13.43 15.64 13.33 16.02C13.2396 16.3561 13.1441 16.691 13.0484 17.0259L13.0484 17.0259L13.0484 17.026C12.8795 17.6177 12.7105 18.2098 12.57 18.81L12.5691 18.8143C12.5594 18.8634 12.548 18.9206 12.48 18.94C12.4296 18.8896 12.4051 18.8236 12.3804 18.7569C12.3708 18.7311 12.3612 18.7052 12.35 18.68C12.24 18.38 12.14 18.09 12.04 17.79C11.97 17.58 11.82 17.47 11.61 17.4C11.46 17.36 11.32 17.36 11.17 17.36H11.17H7.17H0V18.12C0.0697251 18.1137 0.139004 18.1069 0.208025 18.1001C0.465671 18.0749 0.719725 18.05 0.98 18.05H6.7C7.10669 18.05 7.51263 18.0478 7.91824 18.0455H7.91826H7.9184C8.99877 18.0396 10.0767 18.0336 11.16 18.07C11.33 18.07 11.43 18.12 11.48 18.3C11.558 18.552 11.6468 18.804 11.7356 19.056C11.7948 19.224 11.854 19.392 11.91 19.56C11.99 19.81 12.33 20 12.59 19.94C12.9 19.87 13.04 19.66 13.11 19.38C13.22 18.99 13.3275 18.5975 13.435 18.205C13.5425 17.8125 13.65 17.42 13.76 17.03C13.7683 17.0036 13.776 16.9769 13.7837 16.9501C13.8229 16.8144 13.8631 16.6752 13.98 16.55C13.9968 16.5864 14.0136 16.6212 14.0299 16.6551L14.0299 16.6551C14.072 16.7424 14.1112 16.8236 14.14 16.91L14.2563 17.2474C14.4079 17.6879 14.5608 18.1321 14.72 18.57C14.81 18.82 14.98 18.98 15.26 19C15.55 19.02 15.75 18.88 15.87 18.62C15.9419 18.4642 16.0174 18.312 16.0922 18.1612L16.0922 18.1611L16.0924 18.1609C16.1423 18.0602 16.192 17.9601 16.24 17.86C16.3 17.74 16.38 17.69 16.52 17.69H18.6C18.86 17.69 19.12 17.69 19.38 17.67C19.67 17.65 19.88 17.51 19.96 17.2C20.0044 17.05 20.018 16.9 20.0316 16.75V16.75C20.0425 16.63 20.0533 16.51 20.08 16.39C20.17 15.96 20.23 15.53 20.26 15.1C20.275 14.85 20.315 14.605 20.355 14.36C20.395 14.115 20.435 13.87 20.45 13.62C20.4688 13.3138 20.5266 13.0075 20.5844 12.7013C20.6191 12.5175 20.6537 12.3337 20.68 12.15C20.81 11.27 20.93 10.4 21.04 9.52C21.0731 9.27019 21.1115 9.02173 21.1499 8.77363L21.1499 8.77361C21.2161 8.34637 21.282 7.92019 21.32 7.49C21.3419 7.27112 21.3797 7.05756 21.418 6.84155C21.4322 6.7615 21.4465 6.68112 21.46 6.6C21.5072 6.60787 21.5111 6.62812 21.5155 6.65101C21.5166 6.65721 21.5179 6.6636 21.52 6.67C21.54 6.975 21.5625 7.28 21.585 7.585L21.5851 7.5857C21.6075 7.89046 21.63 8.19523 21.65 8.5C21.6763 8.94077 21.694 9.38153 21.7115 9.81945C21.7206 10.0472 21.7297 10.2742 21.74 10.5C21.7516 10.6998 21.7648 10.8987 21.7781 11.0972L21.7781 11.0977L21.7781 11.0978C21.8106 11.5849 21.8429 12.0699 21.85 12.56C21.858 12.8594 21.8755 13.1604 21.8931 13.4617C21.9195 13.9152 21.946 14.3694 21.94 14.82C21.94 14.8468 21.9356 14.8736 21.9313 14.8998L21.9313 14.8998C21.9244 14.9421 21.9177 14.983 21.93 15.02C21.9943 15.2773 22.0069 15.5345 22.0198 15.797C22.0229 15.861 22.0261 15.9253 22.03 15.99C22.0389 16.1233 22.0399 16.2567 22.0409 16.39C22.0421 16.5567 22.0433 16.7233 22.06 16.89C22.085 17.29 22.105 17.6875 22.125 18.085V18.085C22.145 18.4825 22.165 18.88 22.19 19.28C22.2029 19.4899 22.2047 19.6997 22.2065 19.9088V19.9089C22.209 20.1879 22.2114 20.4656 22.24 20.74C22.2538 20.8831 22.2549 21.024 22.256 21.1648C22.2572 21.329 22.2585 21.4931 22.28 21.66C22.33 22.19 22.35 22.72 22.37 23.26L22.3731 23.3897C22.381 23.7363 22.3889 24.0821 22.46 24.42C22.52 24.75 22.77 25 23.07 25.01C23.38 25.01 23.7 24.73 23.71 24.42C23.72 24.07 23.76 23.73 23.8 23.39C23.8398 23.0612 23.8598 22.7325 23.8798 22.405C23.8998 22.075 23.9198 21.7462 23.96 21.42C24.0137 20.9505 24.0493 20.4764 24.0851 20.0009L24.0851 20.0009L24.0852 20.0001C24.1027 19.767 24.1203 19.5335 24.14 19.3C24.16 19.0552 24.18 18.8079 24.2 18.5606L24.2 18.56L24.2006 18.5526C24.2204 18.3076 24.2402 18.0625 24.26 17.82L24.26 17.8196C24.32 17.1197 24.38 16.4199 24.43 15.72C24.4573 15.3656 24.4928 15.0112 24.529 14.6493L24.5291 14.6489L24.54 14.54C24.59 14.62 24.61 14.69 24.62 14.77C24.75 15.67 24.88 16.57 25.02 17.46C25.0365 17.5672 25.0507 17.6751 25.065 17.7832L25.065 17.7832C25.1025 18.0684 25.1402 18.3544 25.22 18.63C25.29 18.86 25.41 19.05 25.68 19.11C25.93 19.16 26.11 19.08 26.27 18.9C26.3999 18.7557 26.4777 18.5802 26.556 18.4035L26.556 18.4034C26.5863 18.3352 26.6166 18.2668 26.65 18.2C26.7995 17.8831 26.9526 17.5697 27.105 17.2578L27.1051 17.2575L27.1051 17.2575C27.2075 17.0479 27.3095 16.8389 27.41 16.63C27.44 16.56 27.48 16.49 27.53 16.43C27.62 16.32 27.69 16.34 27.74 16.47C27.95 17.02 28.16 17.56 28.38 18.11C28.4304 18.2328 28.4758 18.3577 28.5213 18.4826L28.5213 18.4826L28.5213 18.4827C28.6202 18.7544 28.7193 19.0266 28.87 19.28C28.93 19.38 29 19.44 29.11 19.46C29.49 19.56 29.8 19.4 29.92 19.03C29.9571 18.9157 29.9951 18.8006 30.0332 18.6852L30.0334 18.6844C30.1285 18.396 30.2244 18.1054 30.31 17.82C30.36 17.66 30.44 17.62 30.59 17.62H32.68C33.34 17.62 34.01 17.62 34.67 17.65C35.0092 17.6715 35.3485 17.6525 35.6877 17.6334C35.9785 17.6171 36.2692 17.6008 36.56 17.61C36.71 17.61 36.85 17.61 37 17.59C37.14 17.58 37.29 17.53 37.35 17.43C37.58 17.08 37.62 16.78 37.31 16.42C37.1634 16.2426 36.9573 16.1544 36.756 16.0683C36.6964 16.0428 36.6371 16.0174 36.58 15.99C35.78 15.62 35.07 15.12 34.44 14.51C33.89 13.98 33.43 13.37 33.05 12.7C32.83 12.31 32.63 11.9 32.5 11.46C32.4506 11.2872 32.4089 11.1145 32.3677 10.9441L32.3676 10.9436C32.3421 10.838 32.3168 10.7333 32.29 10.63C32.2 10.29 32.11 9.95 32.09 9.62C32.05 8.82 32.03 8.02 32.19 7.23C32.4 6.21 32.8 5.27 33.36 4.4C33.79 3.74 34.34 3.18 34.94 2.67C35.57 2.14 36.27 1.74 37.03 1.44C37.54 1.24 38.05 1.1 38.59 1.01C38.95 0.95 39.31 0.89 39.67 0.87C40.48 0.83 41.28 0.93 42.07 1.14C44.34 1.76 45.99 3.11 47.09 5.17C47.57 6.08 47.81 7.05 47.89 8.08C47.95 8.82 47.95 9.55 47.82 10.28C47.67 11.15 47.36 11.97 46.91 12.74C46.33 13.75 45.54 14.57 44.61 15.26C44.18 15.58 43.72 15.84 43.22 16.05C42.59 16.32 42.42 16.93 42.71 17.39C42.79 17.51 42.89 17.59 43.04 17.6C43.44 17.62 43.84 17.64 44.24 17.64H49.75C49.93 17.64 50.03 17.7 50.08 17.88C50.19 18.27 50.32 18.66 50.46 19.05C50.55 19.31 50.72 19.51 51.02 19.53C51.31 19.55 51.5 19.37 51.61 19.12C51.7466 18.8304 51.8623 18.5319 51.9783 18.2326L51.9783 18.2324C52.0746 17.984 52.1711 17.7349 52.28 17.49C52.357 17.3182 52.42 17.1429 52.4835 16.9662L52.4835 16.966C52.5272 16.8444 52.5711 16.7222 52.62 16.6C52.65 16.52 52.68 16.44 52.76 16.44C52.827 16.44 52.866 16.5032 52.9003 16.5589C52.9044 16.5655 52.9084 16.5721 52.9124 16.5783C52.915 16.5823 52.9175 16.5862 52.92 16.59C53.0398 16.7697 53.1316 16.9606 53.2247 17.1544L53.225 17.1549C53.2561 17.2197 53.2874 17.2849 53.32 17.35C53.4001 17.5101 53.4754 17.6722 53.5506 17.834L53.5507 17.8341C53.7198 18.1979 53.8885 18.5609 54.11 18.9C54.24 19.11 54.48 19.19 54.72 19.14C55.03 19.07 55.31 18.68 55.27 18.33C55.2524 18.1018 55.2888 17.8814 55.325 17.6619C55.3301 17.6312 55.3351 17.6006 55.34 17.57C55.42 17.11 55.4911 16.6501 55.5622 16.1901L55.5622 16.19C55.5978 15.96 55.6333 15.73 55.67 15.5V15.5C55.72 15.21 55.77 14.92 55.83 14.6C55.9159 14.6859 55.9133 14.7718 55.9108 14.8514C55.9106 14.8581 55.9104 14.8647 55.9102 14.8714C55.9101 14.8776 55.91 14.8838 55.91 14.89C55.91 15.1914 55.9412 15.4896 55.9722 15.7865V15.7866C55.9967 16.0216 56.0212 16.2558 56.03 16.49C56.0418 16.7813 56.0707 17.071 56.0995 17.3604V17.3604C56.1439 17.8063 56.1882 18.2513 56.17 18.7C56.17 18.8947 56.1897 19.0933 56.2093 19.2909L56.2094 19.2911L56.2094 19.2912C56.221 19.4081 56.2326 19.5248 56.24 19.64C56.25 19.7567 56.2633 19.8722 56.2767 19.9878C56.3033 20.2189 56.33 20.45 56.33 20.69C56.33 20.74 56.3375 20.7925 56.345 20.845C56.3525 20.8975 56.36 20.95 56.36 21C56.36 21.1276 56.3826 21.2496 56.4053 21.3719L56.4053 21.3719C56.4253 21.4796 56.4453 21.5876 56.45 21.7C56.46 21.99 56.47 22.28 56.48 22.56C56.4921 22.7891 56.5203 23.015 56.5484 23.2402V23.2403L56.5484 23.2404C56.5903 23.5755 56.632 23.9092 56.62 24.25C56.62 24.44 56.7 24.63 56.84 24.78C57.02 24.99 57.25 25.04 57.51 24.96C57.74 24.89 57.92 24.73 57.92 24.48C57.92 24.1767 57.9438 23.8733 57.9676 23.57C57.9846 23.3533 58.0017 23.1367 58.01 22.92C58.0133 22.8169 58.0144 22.7148 58.0155 22.6132C58.0178 22.4093 58.02 22.2069 58.04 22C58.1 21.25 58.15 20.5 58.17 19.75C58.18 19.46 58.195 19.1675 58.21 18.875C58.225 18.5825 58.24 18.29 58.25 18C58.261 17.748 58.2772 17.4973 58.2935 17.247L58.2935 17.2469C58.3218 16.8119 58.35 16.378 58.35 15.94C58.35 15.58 58.37 15.22 58.39 14.86C58.41 14.54 58.43 14.2175 58.45 13.895L58.45 13.8946C58.47 13.5723 58.49 13.2499 58.51 12.93C58.518 12.7901 58.5196 12.6518 58.5212 12.5138V12.5137C58.5236 12.3065 58.526 12.1001 58.55 11.89C58.61 11.22 58.64 10.55 58.67 9.88C58.6761 9.74308 58.6818 9.60575 58.6876 9.46817L58.6876 9.46711C58.7099 8.93178 58.7323 8.39273 58.78 7.86C58.7911 7.73841 58.7926 7.61545 58.7942 7.49214V7.49202C58.7968 7.28072 58.7995 7.06837 58.85 6.86C58.8528 6.8461 58.8517 6.82988 58.8506 6.81371C58.8478 6.7717 58.845 6.73 58.91 6.73C58.9609 6.73 58.9686 6.78752 58.9759 6.8416V6.84163C58.9772 6.85132 58.9785 6.86089 58.98 6.87C59.02 7.42 59.11 7.96 59.2 8.5C59.2515 8.79636 59.2809 9.09641 59.3104 9.39697L59.3104 9.39708V9.39712C59.3495 9.79631 59.3887 10.1964 59.48 10.59C59.5309 10.8104 59.553 11.034 59.5752 11.259V11.2591C59.5924 11.4322 59.6096 11.6061 59.64 11.78C59.7525 12.4487 59.8388 13.1217 59.9249 13.7934L59.9249 13.794C59.9689 14.1366 60.0127 14.4789 60.06 14.82C60.0894 15.0418 60.1166 15.2626 60.1438 15.4829C60.1999 15.9382 60.2559 16.3918 60.33 16.85C60.41 17.34 60.51 17.71 61.15 17.71H63.78C63.99 17.71 64.1 17.78 64.19 17.96L64.1901 17.9602C64.3101 18.2202 64.43 18.4801 64.57 18.73C64.69 18.96 64.9 19.07 65.16 19.05C65.42 19.03 65.57 18.88 65.67 18.67C65.6979 18.6142 65.716 18.5536 65.7346 18.4916C65.7427 18.4646 65.7509 18.4373 65.76 18.41C65.8542 18.1374 65.9483 17.8624 66.0425 17.5873L66.045 17.58C66.14 17.3025 66.235 17.025 66.33 16.75C66.35 16.69 66.38 16.61 66.44 16.61C66.484 16.61 66.4958 16.6585 66.5068 16.704C66.5108 16.7205 66.5147 16.7367 66.52 16.75C66.6561 17.1149 66.75 17.4912 66.8445 17.8695C66.9028 18.103 66.9613 18.3372 67.03 18.57C67.0558 18.6577 67.0802 18.746 67.1047 18.8345C67.1752 19.0891 67.2461 19.3451 67.35 19.59C67.6 20.16 67.98 20.11 68.34 19.82C68.4284 19.7493 68.4699 19.6473 68.5129 19.5417L68.53 19.5C68.572 19.3739 68.6165 19.249 68.6609 19.1246L68.6612 19.1238C68.7434 18.8931 68.8251 18.6636 68.89 18.43C68.95 18.18 69.08 18.12 69.32 18.12C69.7863 18.12 70.2526 18.1189 70.7193 18.1178H70.7199C71.6542 18.1156 72.5899 18.1133 73.53 18.12C74.1191 18.12 74.7082 18.1178 75.2973 18.1155H75.2975C76.8683 18.1096 78.4392 18.1036 80.01 18.14C80.0648 18.1413 80.1121 18.1438 80.1529 18.146C80.2637 18.1518 80.3271 18.1551 80.3639 18.1255C80.4133 18.0858 80.4149 17.9868 80.4189 17.7554C80.4192 17.7347 80.4196 17.7129 80.42 17.69C80.42 17.5 80.38 17.42 80.16 17.42L80.18 17.35ZM42.79 10.17C43.0037 10.17 43.2174 10.1711 43.4307 10.1722H43.4309C43.8564 10.1745 44.2804 10.1767 44.7 10.17C45.59 10.15 46.23 9.38001 45.97 8.40001C45.72 7.45001 45.27 6.63001 44.57 5.93001C44.23 5.58001 43.88 5.27001 43.34 5.36001C43.19 5.38001 43.13 5.28001 43.07 5.17001C42.85 4.74001 42.5 4.48001 42.04 4.35001C41.31 4.14001 40.58 4.06001 39.82 4.10001C39.23 4.13001 38.67 4.25001 38.11 4.44001C37.77 4.56001 37.53 4.77001 37.4 5.09001C37.32 5.30001 37.19 5.32001 37 5.33001C36.71 5.34001 36.42 5.41001 36.19 5.59001C35.67 5.99001 35.28 6.50001 34.97 7.08001C34.72 7.55001 34.53 8.03001 34.43 8.56001C34.33 9.10001 34.49 9.55001 34.91 9.89001C35.13 10.07 35.4 10.15 35.7 10.16C36.0127 10.1636 36.3254 10.162 36.6382 10.1603H36.6382C37.1855 10.1574 37.7327 10.1546 38.28 10.18C38.608 10.196 38.936 10.1864 39.264 10.1768C39.346 10.1744 39.428 10.172 39.51 10.17C39.72 10.17 39.79 10.23 39.78 10.44C39.77 10.81 39.765 11.18 39.76 11.55C39.755 11.92 39.75 12.29 39.74 12.66C39.74 12.84 39.79 12.89 39.96 12.88C40.0741 12.8733 40.1881 12.8756 40.2992 12.8778H40.2992C40.3537 12.8789 40.4074 12.88 40.46 12.88C40.6 12.88 40.65 12.83 40.65 12.68V10.42C40.65 10.22 40.71 10.17 40.9 10.18C41.3136 10.1867 41.7318 10.1845 42.1484 10.1822H42.1485H42.1485C42.3563 10.1811 42.5637 10.18 42.77 10.18L42.79 10.17ZM38.56 9.26001H37.17H35.85C35.39 9.26001 35.21 9.04001 35.31 8.59001C35.4 8.18001 35.56 7.80001 35.75 7.42001C35.9367 7.04649 36.2316 6.76665 36.5244 6.48873C36.5766 6.43927 36.6286 6.38987 36.68 6.34001C36.94 6.10001 37.21 6.12001 37.41 6.41001C37.6718 6.78819 37.8966 7.1928 38.119 7.5931L38.1191 7.59334C38.2025 7.74338 38.2855 7.89281 38.37 8.04001C38.4112 8.11427 38.4532 8.18778 38.4952 8.26115L38.4952 8.26124C38.6057 8.45461 38.7157 8.64705 38.81 8.85001C38.95 9.15001 38.89 9.25001 38.56 9.25001V9.26001ZM40.57 8.97001C40.53 9.04001 40.49 9.10001 40.44 9.16001C40.29 9.34001 40.16 9.34001 40.01 9.16001C39.8268 8.92115 39.6818 8.65694 39.5394 8.39766C39.5029 8.33128 39.4667 8.26523 39.43 8.20001C39.05 7.54001 38.67 6.88001 38.3 6.22001C38.14 5.95001 38.02 5.68001 38.27 5.37001C38.3238 5.3008 38.3776 5.28481 38.436 5.26748C38.4535 5.26227 38.4715 5.25694 38.49 5.25001C38.85 5.11001 39.22 5.00001 39.73 4.96001C39.8413 4.93032 40.0243 4.93369 40.2257 4.9374C40.2957 4.93868 40.3678 4.94001 40.44 4.94001C40.76 4.94001 41.07 4.98001 41.38 5.10001C41.4666 5.13334 41.5622 5.1489 41.6577 5.16446C41.7055 5.17223 41.7533 5.18001 41.8 5.19001C42.34 5.31001 42.5 5.65001 42.23 6.16001C41.9525 6.6925 41.6412 7.20812 41.33 7.72374L41.3293 7.72495C41.2257 7.89643 41.1222 8.06791 41.02 8.24001C40.9184 8.42144 40.8115 8.59761 40.7032 8.77615L40.7032 8.77621C40.6622 8.84367 40.6211 8.91146 40.58 8.98001L40.57 8.97001ZM41.8747 8.43017L41.8749 8.42992C42.2105 7.84721 42.5485 7.26027 42.9 6.68001C43.27 6.06001 43.53 6.02001 44.04 6.54001C44.64 7.15001 45.02 7.87001 45.14 8.73001C45.19 9.10001 45.03 9.29001 44.65 9.29001H43.26H41.91C41.53 9.29001 41.46 9.15001 41.65 8.82001C41.7248 8.69036 41.7997 8.56037 41.8747 8.43017ZM165.126 17.456C165.958 17.9467 166.918 18.192 168.006 18.192C169.105 18.192 170.07 17.9467 170.902 17.456C171.734 16.9653 172.38 16.288 172.838 15.424C173.308 14.5493 173.542 13.5413 173.542 12.4C173.542 11.2587 173.308 10.256 172.838 9.392C172.38 8.51733 171.734 7.83467 170.902 7.344C170.07 6.85333 169.105 6.608 168.006 6.608C166.918 6.608 165.958 6.85333 165.126 7.344C164.294 7.83467 163.644 8.51733 163.174 9.392C162.705 10.256 162.47 11.2587 162.47 12.4C162.47 13.5413 162.705 14.5493 163.174 15.424C163.644 16.288 164.294 16.9653 165.126 17.456ZM169.766 15.792C169.276 16.1013 168.689 16.256 168.006 16.256C167.334 16.256 166.748 16.1013 166.246 15.792C165.745 15.472 165.356 15.024 165.078 14.448C164.801 13.872 164.662 13.1893 164.662 12.4C164.662 11.6 164.801 10.9173 165.078 10.352C165.356 9.776 165.745 9.33333 166.246 9.024C166.748 8.71467 167.334 8.56 168.006 8.56C168.689 8.56 169.276 8.71467 169.766 9.024C170.268 9.33333 170.657 9.776 170.934 10.352C171.212 10.9173 171.35 11.6 171.35 12.4C171.35 13.1893 171.212 13.872 170.934 14.448C170.657 15.024 170.268 15.472 169.766 15.792ZM177.513 17.472C178.324 17.952 179.289 18.192 180.409 18.192C181.764 18.192 182.873 17.8613 183.737 17.2C184.601 16.5387 185.14 15.6267 185.353 14.464H182.985C182.847 15.0293 182.559 15.472 182.121 15.792C181.684 16.1013 181.108 16.256 180.393 16.256C179.732 16.256 179.161 16.1013 178.681 15.792C178.212 15.4827 177.849 15.04 177.593 14.464C177.337 13.888 177.209 13.2053 177.209 12.416C177.209 11.616 177.337 10.9333 177.593 10.368C177.849 9.792 178.212 9.34933 178.681 9.04C179.161 8.72 179.732 8.56 180.393 8.56C181.108 8.56 181.684 8.73067 182.121 9.072C182.569 9.40267 182.863 9.86667 183.001 10.464H185.353C185.14 9.23734 184.601 8.288 183.737 7.616C182.873 6.944 181.764 6.608 180.409 6.608C179.289 6.608 178.324 6.85333 177.513 7.344C176.713 7.83467 176.095 8.51733 175.657 9.392C175.231 10.2667 175.017 11.2747 175.017 12.416C175.017 13.5573 175.231 14.5653 175.657 15.44C176.095 16.304 176.713 16.9813 177.513 17.472ZM151.526 18V6.8H155.27C156.571 6.8 157.643 7.03467 158.486 7.504C159.339 7.96267 159.969 8.61334 160.374 9.456C160.79 10.288 160.998 11.2693 160.998 12.4C160.998 13.5307 160.79 14.5173 160.374 15.36C159.969 16.192 159.345 16.8427 158.502 17.312C157.659 17.7707 156.582 18 155.27 18H151.526ZM153.686 16.144H155.158C156.075 16.144 156.795 15.9947 157.318 15.696C157.851 15.3973 158.23 14.9707 158.454 14.416C158.678 13.8507 158.79 13.1787 158.79 12.4C158.79 11.6107 158.678 10.9387 158.454 10.384C158.23 9.81867 157.851 9.38667 157.318 9.088C156.795 8.78934 156.075 8.64 155.158 8.64H153.686V16.144ZM138.432 6.8V18H145.792V16.256H140.592V13.152H145.312V11.472H140.592V8.544H145.792V6.8H138.432ZM128.338 18V6.8H132.514C133.421 6.8 134.168 6.95467 134.754 7.264C135.341 7.57334 135.778 7.98934 136.066 8.512C136.354 9.024 136.498 9.59467 136.498 10.224C136.498 10.8213 136.36 11.3813 136.082 11.904C135.805 12.416 135.368 12.832 134.77 13.152C134.629 13.2268 134.477 13.2925 134.315 13.3492L136.61 18H134.146L132.097 13.616H130.498V18H128.338ZM130.498 12.048H132.386C133.037 12.048 133.517 11.888 133.826 11.568C134.136 11.248 134.29 10.8267 134.29 10.304C134.29 9.78134 134.136 9.37067 133.826 9.072C133.528 8.76267 133.048 8.608 132.386 8.608H130.498V12.048ZM119.448 6.8V18H121.608V13.232H125.72V11.536H121.608V8.544H126.744V6.8H119.448ZM109.62 18V6.8H113.812C114.718 6.8 115.47 6.95467 116.068 7.264C116.665 7.57334 117.108 7.98934 117.396 8.512C117.684 9.03467 117.828 9.632 117.828 10.304C117.828 10.9227 117.689 11.4933 117.412 12.016C117.134 12.5387 116.697 12.9653 116.1 13.296C115.502 13.616 114.74 13.776 113.812 13.776H111.78V18H109.62ZM111.78 12.032H113.684C114.377 12.032 114.873 11.8773 115.172 11.568C115.481 11.248 115.636 10.8267 115.636 10.304C115.636 9.74934 115.481 9.32267 115.172 9.024C114.873 8.71467 114.377 8.56 113.684 8.56H111.78V12.032ZM101.62 6.8L97.5239 18H99.7959L100.681 15.456H104.979L105.86 18H108.148L104.068 6.8H101.62ZM104.398 13.776L102.836 9.264L101.266 13.776H104.398ZM84.104 18V6.8H86.68L90.104 13.792L93.496 6.8H96.072V18H93.912V10.48L90.952 16.432H89.24L86.264 10.48V18H84.104Z" fill="#DF0A23"/>
</svg>
